<?xml version="1.0" encoding="utf-8"?>
<!-- Generator: Adobe Illustrator 19.0.1, SVG Export Plug-In . SVG Version: 6.00 Build 0)  -->
<svg version="1.1" xmlns="http://www.w3.org/2000/svg" xmlns:xlink="http://www.w3.org/1999/xlink" x="0px" y="0px"
	 viewBox="0 0 600 600" style="enable-background:new 0 0 600 600;" xml:space="preserve">
<style type="text/css">
	.st0{fill:#7D2727;stroke:#231F20;stroke-miterlimit:10;}
	.st1{display:none;}
	.st2{display:inline;opacity:0.36;}
	.st3{fill:#FFFFFF;stroke:#000000;stroke-width:4;stroke-linecap:round;stroke-linejoin:round;stroke-miterlimit:10;}
	.st4{stroke:#000000;stroke-width:4;stroke-linecap:round;stroke-linejoin:round;stroke-miterlimit:10;}
</style>
<g id="Layer_1">
	<rect class="st0" width="600" height="600"/>
</g>
<g id="Layer_2" class="st1">
	<g id="frbznR.tif" class="st2">
		
			<image style="overflow:visible;" width="558" height="595" id="Layer_0" xlink:href="A9B246C82E533437.png"  transform="matrix(0.4902 -0.1254 0.1112 0.4349 130.1408 205.6144)">
		</image>
	</g>
</g>
<g id="Layer_3">
</g>
<g id="Layer_4">
	<g>
		<path class="st3" d="M201.7,312l25.5,94.3c0,0,1.7,9.3,13.3,7.5C252.2,412.1,396,375,396,375s7.5-3.6,5.8-12
			c-1.7-8.3-26.1-95.9-26.1-95.9L201.7,312z"/>
		<polygon class="st3" points="208.7,312.5 197.9,293.6 335.9,185.9 345.8,204 		"/>
		<line class="st3" x1="206.6" y1="329.8" x2="380.4" y2="286.8"/>
		<polygon class="st4" points="375.7,267.1 364.3,290 339.9,296.3 352.2,273.4 		"/>
		<polygon class="st4" points="326.7,280.1 315.5,302.2 291.5,308.3 303.6,286.1 		"/>
		<polygon class="st4" points="279.9,292.1 268.2,314.6 243.1,320.8 255.8,298.2 		"/>
		<polygon class="st4" points="232.2,304.5 220,326.6 206.6,329.8 201.7,312 		"/>
		<polygon class="st4" points="345.8,204 323.1,198.3 306.2,210.7 329.4,215.7 		"/>
		<polygon class="st4" points="309.8,232.3 286.1,226.8 268.1,240.3 292.3,245.1 		"/>
		<polygon class="st4" points="273,260.8 248,256.3 227.9,272.4 253.4,276.1 		"/>
		<polygon class="st4" points="232.3,293.4 207.1,288.8 199.9,293.9 210.1,310.3 		"/>
	</g>
</g>
</svg>
