<?xml version="1.0" encoding="utf-8"?>
<!-- Generator: Adobe Illustrator 19.0.1, SVG Export Plug-In . SVG Version: 6.00 Build 0)  -->
<svg version="1.1" xmlns="http://www.w3.org/2000/svg" xmlns:xlink="http://www.w3.org/1999/xlink" x="0px" y="0px"
	 viewBox="0 0 400 400" style="enable-background:new 0 0 400 400;" xml:space="preserve">
<style type="text/css">
	.st0{fill:#5FB4C0;}
	.st1{fill:#FFFFFF;stroke:#FFFFFF;stroke-width:3;stroke-miterlimit:10;}
	.st2{fill:#F75C50;stroke:#F75C50;stroke-miterlimit:10;}
	.st3{fill:#5FB4C0;stroke:#FFFFFF;stroke-width:4;stroke-miterlimit:10;}
</style>
<g id="Layer_3">
	<g>
		<rect class="st0" width="400" height="400"/>
	</g>
</g>
<g id="Layer_2">
	<circle class="st1" cx="200" cy="200" r="89.6"/>
	<path class="st0" d="M259.1,146.3c-4.1-1-9.2,3.6-13.2,3.6c-4.1,0-3.6,9.2-9.7,8.1c-6.1-1-7.1-17.8-7.1-17.8s-10.2-7.1-8.1-2.6
		c2,4.6-5.1,5.1-5.1,5.1s-8.1-4.1-5.6-7.1c2.5-3.1-8.2-4.1-8.2-4.1s3.6,3-7.6,6.1c-11.2,3.1-10.7,11.2-9.2,12.7c1.5,1.5,7.1,0,8.7,3
		c1.5,3.1,4.4,5.1,4.4,5.1s4.2,1.5,4.5-3.6c0.3-4.5,1.8-3.1,2.2-2.6c-0.7-0.9-6-8.1,1.1-8.6c7.6-0.5,10.2,4.6,10.2,4.6s0,0,3.6-1.5
		c3.6-1.5,3.1,4.6,7.6,9.7c4.6,5.1,2.5,3.6,5.6,8.7c3.1,5.1-5.1,0-5.1,0s-4.6,5.1-10.2,2.5c-5.6-2.5-10.7,9.2-10.7,9.2
		s-1,8.1-5.1,8.1c-4.1,0-0.5,11.7-3.7,8.1c-3.2-3.6-3.9-8.1-11.6-6.1c-7.6,2-6.1,12.7,0.5,13.7c6.6,0.9,8.1,6.2,8.1,6.2
		s2,2,19.8,3.1c17.8,1,15.8,7.1,19.3,10.7c3.6,3.6,8.1,8.1,17.3,6.6c9.2-1.5,1,9.7,0,8.1c-1-1.5-6.1,5.6-3.6,8.7
		c2.5,3-10.2,8.1-10.2,8.1s-7.6,18.3-10.2,13.7c-2.5-4.6-10.7,10.7-10.7,10.7s-1.5,2.5-7.6,2c0,0-2.5-13.7,0-13.7
		c2.5,0,3-16.3,3.6-20.9c0.5-4.6-2-2-11.2-10.7c-9.2-8.7,0.9-20.4,0.9-20.4s-13-2.5-13-5.1c0-2.5-5.1-4.1-5.1-4.1s-7.6,2.5-10.2-3.2
		c-2.5-5.7-10.2-13.1-10.2-13.1s-18.8-11.7-13.7-18.8c5.1-7.1-10.2-16.8-10.2-16.8s30.5-30.5,32.1-23.9c1.5,6.6,9.7,2.5,9.7,2.5
		s1.5-4.6,5.1-7.1c3.6-2.6,15.8-3.5,18.8,2.1c3,5.6,10.2,2,10.2,2s-7.1-3,3-4.1C229.6,122.4,263.2,147.3,259.1,146.3z"/>
</g>
<g id="Layer_4">
	<circle class="st2" cx="200" cy="92.6" r="31.6"/>
	<path class="st2" d="M221.2,114.4l-20.6,56.3c-0.2,0.4-0.8,0.4-0.9,0l-20.9-56.1c-0.1-0.3,0.1-0.6,0.5-0.6l41.6-0.2
		C221.1,113.8,221.4,114.1,221.2,114.4z"/>
	<circle class="st3" cx="200" cy="91.7" r="9.9"/>
</g>
</svg>
