<?xml version="1.0" encoding="utf-8"?>
<!-- Generator: Adobe Illustrator 19.0.1, SVG Export Plug-In . SVG Version: 6.00 Build 0)  -->
<svg version="1.1" xmlns="http://www.w3.org/2000/svg" xmlns:xlink="http://www.w3.org/1999/xlink" x="0px" y="0px"
	 viewBox="0 0 600 600" style="enable-background:new 0 0 600 600;" xml:space="preserve">
<style type="text/css">
	.st0{fill:#EE1C25;}
	.st1{display:none;}
	.st2{display:inline;opacity:0.32;}
	.st3{fill:none;stroke:#FFCB06;stroke-width:10;stroke-miterlimit:10;}
	.st4{fill:none;stroke:#FFCB06;stroke-width:7;stroke-miterlimit:10;}
	.st5{fill:#FFCB06;stroke:#231F20;stroke-miterlimit:10;}
	.st6{fill:#FFFFFF;stroke:#231F20;stroke-width:2;stroke-miterlimit:10;}
	.st7{fill:#EE1C25;stroke:#231F20;stroke-width:2;stroke-miterlimit:10;}
	.st8{fill:#231F20;stroke:#EE1C25;stroke-width:2;stroke-miterlimit:10;}
	.st9{fill:#FFFFFF;}
	.st10{fill:none;stroke:#FFCB06;stroke-miterlimit:10;}
</style>
<g id="Layer_4">
	<rect class="st0" width="600" height="600"/>
</g>
<g id="Layer_1" class="st1">
	<g id="wvRrPz.tif" class="st2">
		
			<image style="overflow:visible;" width="410" height="237" id="Layer_0" xlink:href="7F7298B6FE3D434.png"  transform="matrix(1 0 0 1 95 181.5)">
		</image>
	</g>
</g>
<g id="Layer_3">
	<circle class="st3" cx="300" cy="298.5" r="210.7"/>
	<ellipse class="st4" cx="300" cy="300" rx="190.5" ry="190.4"/>
	<path class="st5" d="M305.5,364.7c-0.7,1.4,0.4,4,1.6,5c2.2,1.9,5.5,1.3,6.2,1.2c1.1-0.1,2.9-0.3,3.6-1.6c0.7-1.3,0.8-4.5-0.5-5.8
		C314.4,361.4,306.6,362.6,305.5,364.7z"/>
	<path class="st5" d="M315.4,364.7c-0.7,1.4,0.3,4.9,1.5,5.9c2.2,1.9,5.6,1,6.3,0.9c1.1-0.1,2.9-1,3.6-2.2c0.7-1.3,0.8-4.5-0.5-5.8
		C324.2,361.4,316.4,362.6,315.4,364.7z"/>
	<path class="st5" d="M348.8,355.3c-0.7,1.4,1.3,3.5,1.6,5c0.6,3.8,5.5,1.3,6.2,1.2c1.1-0.1,1.5-0.8,2.1-2.1c0.7-1.3,2.2-3.9,1-5.3
		C357.7,352,349.9,353.2,348.8,355.3z"/>
	<path class="st5" d="M341.4,358.7c-0.7,1.4,1.1,3.5,1.6,5c1.2,3.5,5.5,1.3,6.2,1.2c1.1-0.1,2.9-0.3,3.6-1.6
		c0.7-1.3,0.8-4.5-0.5-5.8C350.2,355.3,342.4,356.5,341.4,358.7z"/>
	<path class="st5" d="M324,363c-0.7,1.4,1,3.5,1.6,5c1.6,4.6,5.5,1.3,6.2,1.2c1.1-0.1,2.9,0.1,3.6-1.6c0.6-1.4,0.8-4.5-0.5-5.8
		C332.9,359.7,325.1,360.9,324,363z"/>
	<path class="st5" d="M309.3,385.5c1.2,1,0.3,4.9,1.5,5.9c2.2,1.9,5.6,1,6.3,0.9c1.1-0.1,2.9-1,3.6-2.2c0.7-1.3,0.8-4.5-0.5-5.8
		C318.2,382.1,308.4,384.7,309.3,385.5z"/>
	<path class="st5" d="M319,382.7c-0.7,1.4,0.3,4.9,1.5,5.9c2.2,1.9,5.6,1,6.3,0.9c1.1-0.1,2.9-1,3.6-2.2c0.7-1.3,1.4-5.6-0.5-5.8
		C327.2,381.2,320,380.5,319,382.7z"/>
	<path class="st5" d="M336.7,380.8c-1.5,0.5,1.1,3.5,1.6,5c1.2,3.5,5.5,1.3,6.2,1.2c1.1-0.1,2.9-0.3,3.6-1.6
		c0.7-1.3,0.8-4.5-0.5-5.8C345.6,377.5,341.2,379.4,336.7,380.8z"/>
	<path class="st5" d="M353.3,371.5c-1.5,0.4,1.1,3.5,1.6,5c1.2,3.5,5.5,1.3,6.2,1.2c1.1-0.1,2.4-0.3,2.3-1.7
		c-0.3-2.7-0.1-4.1-1.2-5.6C359.8,367.3,361.7,369.4,353.3,371.5z"/>
	<path class="st5" d="M344.1,376.6c-1.5,0.4,1.3,3.5,1.9,4.9c1.4,3.4,5.6,0.9,6.3,0.8c1.1-0.2,2.9-0.5,3.4-1.8
		c0.6-1.4,0.5-4.5-0.9-5.8C352.7,372.7,348.6,375.4,344.1,376.6z"/>
</g>
<g id="Layer_2">
	<g>
		<g>
			<g>
				<path class="st6" d="M240.2,339.1c-2,2.4,4.1,7.4,7.4,21.3c2.5,10.5,0.3,13.2,3.7,18c3.9,5.5,8.8,5,18.3,10.1
					c9.2,5,10.5,8.6,18,14.3c18,13.5,39.2,13.7,43.5,13.7c7.8-0.1,26.7-0.3,34.2-11.8c0.8-1.3,2.4-7.1,5.6-18.6
					c3.2-11.6,3.6-14.7,6.8-19.3c3.7-5.3,5.9-5.1,7.5-9.3c1.3-3.7,0.7-6.8-1.9-16.8c-3.6-13.6-2.3-16.9-5-18
					c-3.3-1.4-9.3,1.5-10.6,6.2c-0.8,2.8,0.6,5.4,1.2,6.8c0,0,5.1,11,0,26.7c-4,12.4-18.8,17.8-29.8,21.7
					c-11.9,4.3-25.8,6.4-39.2-0.5c-14.4-7.4-23.3-14.3-30.4-33.1C264.1,336.2,243,335.8,240.2,339.1z"/>
				<path class="st6" d="M208.5,272.2c-0.3-8.8-0.6-26.4,9.7-45.3c2.2-4,7.4-12.8,16.8-21.4c16.7-15.2,35.3-19.4,42.8-20.7
					c23.2-4,41.1,2.9,48.6,5.8c14.1,5.6,31.4,12.5,38.2,28.5c6.4,15.2-2.2,25.3,7.8,38.9c3.8,5.2,9.5,9.7,9.1,16.8
					c-0.3,5-3.4,9.1-1.3,11.7c1.6,2,4.2,0.4,7.1,2.6c2.9,2.1,3.4,5.9,3.9,9.7c0.3,2.6,1.1,8.4-1.9,14.3c-2.1,4.1-5.1,6.3-9.1,9.1
					c-10.8,7.7-17,6.3-18.8,11c-2.1,5.5,5.2,9.3,3.9,15.5c-1.5,6.9-12.3,9.9-24,13c-16.7,4.4-33,8.7-40.8,0.6
					c-5.9-6-2.4-14.3-8.4-17.5c-4.6-2.5-7.5,2.8-18.8,3.9c-10.6,1-19.2-2.4-23.3-4.1c-7-3-11.3-6.6-16.3-10.8
					c-7.1-6-18.4-17.4-16.2-20.7c1.7-2.6,10.6,1.5,11.7-0.6c1.3-2.6-11.4-8.2-17.5-20.7C208.9,285.8,208.8,280.9,208.5,272.2z"/>
			</g>
			<path class="st7" d="M291.2,266.1c-9.9-3.2-18.5,2.4-25.1,6.7c-4.4,2.9-9,5.8-11.8,11.8c-3.3,7.2-3.5,17.9,3.1,25.1
				c6.3,6.9,15.5,6.7,18.9,6.7c15.1-0.3,23.9-12.2,25.1-13.8c2.1-3,5.9-8.2,5.6-15.4C306.8,277.8,300,269,291.2,266.1z"/>
			<path class="st7" d="M336.8,260c-1.9,0.7-11,4.2-14.3,13.8c-0.5,1.6-2.5,7.5,0,13.8c4,10.2,16.8,13.8,25.6,13.3
				c2.9-0.2,11.1-0.6,16.9-7.2c5.9-6.7,7.3-17.3,2.6-25.1c-4.5-7.4-12.7-9.1-15.9-9.7C349.5,258.6,343.6,257.4,336.8,260z"/>
			<path class="st7" d="M320.4,299.4c-4.1,2.1-5.2,6.8-6.7,13.3c-1.7,7.5-2.7,12.1,0,14.8c1.8,1.9,5.2,2.7,6.7,1.5
				c0.6-0.5,0.6-1,2-5.1c0.8-2.2,1-2.7,1.7-3.1c1.1-0.7,3-0.5,4,0.4c1.2,1.1,0.4,2.5,1.6,4c0.8,0.9,2.1,1.6,3.4,1.5
				c2.6-0.2,3.9-4.1,4-4.6c0.5-1.6,0.8-4.1-1.6-9.8c-2.6-6.2-5.7-13.5-11.1-13.9C322.5,298.3,321.1,299.1,320.4,299.4z"/>
		</g>
		<circle class="st8" cx="283.1" cy="290.8" r="11.1"/>
		<circle class="st8" cx="340.1" cy="279.8" r="7.3"/>
	</g>
	<path class="st9" d="M285.9,282.5l-2.8,5.8c0,0,3.5-1.2,2.8,2.1c-0.4,1.9,5.5-3.3,5.5-3.3S289.9,282.5,285.9,282.5z"/>
	<path class="st9" d="M341.8,274.7l-1.7,3.4c0,0,2.1-0.7,1.7,1.2c-0.2,1.1,3.3-1.9,3.3-1.9S344.2,274.7,341.8,274.7z"/>
	<path class="st10" d="M307.1,365.9"/>
</g>
</svg>
