<?xml version="1.0" encoding="utf-8"?>
<!-- Generator: Adobe Illustrator 19.0.1, SVG Export Plug-In . SVG Version: 6.00 Build 0)  -->
<svg version="1.1" xmlns="http://www.w3.org/2000/svg" xmlns:xlink="http://www.w3.org/1999/xlink" x="0px" y="0px"
	 viewBox="0 0 32 32" style="enable-background:new 0 0 32 32;" xml:space="preserve">
<style type="text/css">
	.st0{fill:#673AB7;}
	.st1{fill:none;stroke:#7E57C2;}
	.st2{fill:none;stroke:#9575CD;}
</style>
<g id="Layer_2">
</g>
<g id="Layer_1">
</g>
<g id="Layer_3">
	<g>
		<g>
			<path class="st0" d="M21.6,20.2c0,1.6-0.6,2.8-1.7,3.7c-1.1,0.9-2.7,1.3-4.6,1.3c-2.1,0-3.7-0.3-4.9-0.8v-2
				c0.7,0.3,1.5,0.5,2.4,0.7c0.9,0.2,1.7,0.3,2.5,0.3c1.4,0,2.4-0.3,3.1-0.8c0.7-0.5,1-1.2,1-2.2c0-0.6-0.1-1.1-0.4-1.5
				c-0.2-0.4-0.7-0.8-1.2-1.1c-0.6-0.3-1.5-0.7-2.6-1.1c-1.6-0.6-2.8-1.3-3.5-2.1c-0.7-0.8-1.1-1.9-1.1-3.2c0-1.4,0.5-2.5,1.5-3.3
				c1-0.8,2.4-1.2,4.1-1.2c1.8,0,3.4,0.3,4.9,1l-0.6,1.8C19,9,17.6,8.7,16.2,8.7c-1.1,0-1.9,0.2-2.6,0.7c-0.6,0.5-0.9,1.1-0.9,2
				c0,0.6,0.1,1.1,0.3,1.5c0.2,0.4,0.6,0.8,1.1,1.1c0.5,0.3,1.4,0.7,2.5,1.1c1.9,0.7,3.1,1.4,3.8,2.1C21.2,18,21.6,18.9,21.6,20.2z"
				/>
		</g>
		<g>
			<g>
				<g>
					<path class="st1" d="M15.3,27.1c-2.4,0-4.3-0.3-5.7-1l-1.1-0.5v-6.3l2.8,1.2c0.6,0.3,1.3,0.5,2,0.6c0.7,0.1,1.4,0.2,2.1,0.2
						c1.3,0,1.8-0.3,1.9-0.4c0.1-0.1,0.2-0.2,0.2-0.6c0-0.3,0-0.4-0.1-0.4c0,0-0.1-0.2-0.5-0.4c-0.3-0.2-1-0.5-2.3-1
						c-2-0.7-3.4-1.6-4.4-2.7c-1-1.2-1.6-2.7-1.6-4.5c0-2,0.8-3.6,2.3-4.8c1.4-1.1,3.2-1.6,5.3-1.6c2,0,3.9,0.4,5.7,1.1l1.7,0.7
						l-2,5.5l-1.9-0.8c-1.2-0.5-2.4-0.8-3.5-0.8c-0.6,0-1.1,0.1-1.3,0.3c-0.1,0.1-0.1,0.1-0.1,0.4c0,0.4,0.1,0.5,0.1,0.5l0,0
						c0,0,0.1,0.1,0.5,0.4c0.3,0.2,0.9,0.5,2.1,0.9c2.2,0.8,3.7,1.7,4.6,2.7c1,1.1,1.6,2.6,1.6,4.3c0,2.2-0.9,4-2.5,5.2
						C19.6,26.5,17.7,27.1,15.3,27.1z"/>
				</g>
			</g>
		</g>
		<g>
			<g>
				<g>
					<path class="st2" d="M15.3,29.1c-2.7,0-4.9-0.4-6.6-1.2l-2.3-1.1V16.3l2.4,1c0,0-0.1-0.1-0.1-0.1c-1.3-1.5-2.1-3.5-2.1-5.8
						c0-2.6,1.1-4.8,3.1-6.4c1.7-1.4,3.9-2.1,6.5-2.1c2.3,0,4.5,0.4,6.5,1.3l3.4,1.5l-3,8.4c0.1,0.1,0.2,0.2,0.3,0.3
						c1.4,1.5,2.1,3.5,2.1,5.7c0,2.8-1.1,5.2-3.3,6.8C20.5,28.4,18.1,29.1,15.3,29.1z"/>
				</g>
			</g>
		</g>
	</g>
</g>
</svg>
