<?xml version="1.0" encoding="utf-8"?>
<!-- Generator: Adobe Illustrator 19.0.1, SVG Export Plug-In . SVG Version: 6.00 Build 0)  -->
<svg version="1.1" id="Layer_1" xmlns="http://www.w3.org/2000/svg" xmlns:xlink="http://www.w3.org/1999/xlink" x="0px" y="0px"
	 viewBox="0 50 600 150" style="enable-background:new 0 50 600 150;" xml:space="preserve">
<style type="text/css">
	<![CDATA[
	.st0{
		fill:none;stroke:#FFFFFF;
		stroke-dasharray: 1000;
		stroke-dashoffset: 1000;
		-webkit-animation: draw 4s linear;
		animation: draw 4s linear;
		-webkit-animation-fill-mode: forwards;
						animation-fill-mode: forwards;
	}
	@-webkit-keyframes draw {
		 to {
			 stroke-dashoffset: 0;
		 }
	}
	@keyframes draw {
		 to {
			 stroke-dashoffset: 0;
		 }
	}
	]]>
</style>
<g>
	<path class="st0" d="M53.3,102.1c-5.5,0-9.6,2-12.6,6.1c-3,4-4.5,9.8-4.5,17c0,15.1,5.7,22.7,17,22.7c4.8,0,10.6-1.2,17.4-3.6v12.1
		c-5.6,2.4-11.8,3.5-18.7,3.5c-9.9,0-17.5-3-22.7-9c-5.2-6-7.9-14.6-7.9-25.8c0-7,1.3-13.2,3.8-18.6c2.6-5.4,6.3-9.4,11.1-12.3
		S46.6,90,53.1,90c6.5,0,13.2,1.5,19.9,4.8l-4.6,11.7c-2.5-1.2-5.1-2.3-7.6-3.2C58.3,102.5,55.7,102.1,53.3,102.1z"/>
	<path class="st0" d="M165.8,125c0,11.3-2.7,19.9-8.3,25.9c-5.6,6.1-13.6,9-24,9s-18.4-3-24-9c-5.6-6.1-8.3-14.8-8.3-26.1
		s2.7-20,8.5-25.9c5.6-6,13.6-8.9,24-8.9s18.4,3,23.9,9C163.1,105,165.8,113.7,165.8,125z M116.2,125c0,7.6,1.4,13.3,4.3,17.1
		c2.9,3.8,7.1,5.7,13,5.7c11.5,0,17.3-7.6,17.3-23s-5.7-23-17.1-23c-5.7,0-10.1,1.9-13,5.8C117.7,111.7,116.2,117.4,116.2,125z"/>
	<path class="st0" d="M259.2,159h-18.3l-29.5-51.4h-0.5c0.6,9,0.8,15.6,0.8,19.4v32h-12.9v-68h18.2l29.5,50.9h0.4
		c-0.5-8.8-0.7-15.1-0.7-18.7V91.2h13V159z"/>
	<path class="st0" d="M321.6,159h-14.4v-55.9h-18.5v-12h51.3v12h-18.4V159z"/>
	<path class="st0" d="M411.2,159l-4.9-16.2h-24.8l-4.9,16.2h-15.5l24-68.2h17.6l24,68.2H411.2z M402.9,130.8
		c-4.5-14.6-7.1-23-7.7-24.9c-0.6-1.9-1-3.5-1.2-4.5c-1.1,3.9-3.9,13.8-8.8,29.4C385.2,130.8,402.9,130.8,402.9,130.8z"/>
	<path class="st0" d="M483.3,102.1c-5.5,0-9.6,2-12.6,6.1c-3,4-4.5,9.8-4.5,17c0,15.1,5.7,22.7,17,22.7c4.8,0,10.6-1.2,17.4-3.6
		v12.1c-5.6,2.4-11.8,3.5-18.7,3.5c-9.9,0-17.5-3-22.7-9c-5.2-6-7.9-14.6-7.9-25.8c0-7,1.3-13.2,3.8-18.6c2.6-5.4,6.3-9.4,11.1-12.3
		S476.6,90,483,90c6.5,0,13.2,1.5,19.9,4.8l-4.6,11.7c-2.5-1.2-5.1-2.3-7.6-3.2C488.2,102.5,485.7,102.1,483.3,102.1z"/>
	<path class="st0" d="M560.3,159h-14.4v-55.9h-18.4v-12h51.3v12h-18.5V159z"/>
</g>
<g>
	<g>
		<g>
			<path class="st0" d="M51.9,167.1c-12,0-21.4-3.8-28.1-11.4c-6.4-7.3-9.6-17.6-9.6-30.5c0-8.1,1.5-15.5,4.5-21.7
				c3.2-6.5,7.9-11.7,13.9-15.2c6-3.5,12.9-5.2,20.6-5.2c7.6,0,15.4,1.9,23,5.5l6.1,2.9l-9.9,25l-6.9-3.3c-2.3-1.1-4.6-2-6.9-2.9
				c-1.8-0.6-3.6-1-5.2-1c-3.2,0-5.2,1-6.8,3.2c-2,2.9-3.1,7.1-3.1,12.9c0,15.6,6.4,15.6,9.9,15.6c3.9,0,8.9-1.1,15-3.2l9.5-3.3
				v26.9l-4.4,1.8C66.9,165.8,59.7,167.1,51.9,167.1z"/>
		</g>
		<g>
			<path class="st0" d="M133.4,167.1c-12.5,0-22.3-3.8-29.3-11.3c-6.8-7.4-10.2-17.7-10.2-30.8s3.5-23.4,10.4-30.8
				c7-7.4,16.8-11.2,29.3-11.2s22.3,3.8,29.3,11.3c6.8,7.4,10.2,17.7,10.2,30.8s-3.5,23.4-10.2,30.8
				C155.7,163.3,145.9,167.1,133.4,167.1z M133.5,109.1c-4.5,0-6.2,1.5-7.3,3c-1.9,2.5-3,7-3,12.9c0,6,1,10.4,2.9,12.9
				c1.1,1.3,2.7,2.9,7.3,2.9c3.6,0,10.1,0,10.1-15.8C143.5,109.1,137,109.1,133.5,109.1z"/>
		</g>
		<g>
			<polygon class="st0" points="236.9,166.1 219,135.2 219,166.1 191.9,166.1 191.9,83.9 221.3,83.9 239.1,114.7 239.1,83.9
				266.4,83.9 266.4,166.1 			"/>
		</g>
		<g>
			<polygon class="st0" points="300.1,166.1 300.1,110.2 281.6,110.2 281.6,83.9 347.2,83.9 347.2,110.2 328.7,110.2 328.7,166.1
							"/>
		</g>
		<g>
			<polygon class="st0" points="405.9,166.1 401,149.9 386.8,149.9 381.8,166.1 351,166.1 379.9,83.6 407.7,83.6 436.8,166.1 			"/>
		</g>
		<g>
			<path class="st0" d="M481.8,167.1c-12,0-21.4-3.8-28.1-11.4c-6.4-7.3-9.6-17.6-9.6-30.5c0-8.1,1.5-15.5,4.5-21.7
				c3.2-6.5,7.9-11.7,13.9-15.2c6-3.5,12.9-5.2,20.6-5.2c7.6,0,15.4,1.9,23,5.5l6.1,2.9l-9.9,25l-6.9-3.3c-2.3-1.1-4.6-2-6.9-2.9
				c-1.8-0.6-3.6-1-5.2-1c-3.2,0-5.2,1-6.8,3.2c-2,2.9-3.1,7.1-3.1,12.9c0,15.6,6.4,15.6,9.9,15.6c3.9,0,8.9-1.1,15-3.2l9.5-3.3
				v26.9l-4.4,1.8C496.9,165.8,489.7,167.1,481.8,167.1z"/>
		</g>
		<g>
			<polygon class="st0" points="538.7,166.1 538.7,110.2 520.3,110.2 520.3,83.9 585.9,83.9 585.9,110.2 567.4,110.2 567.4,166.1
							"/>
		</g>
	</g>
</g>
</svg>
