<?xml version="1.0" encoding="utf-8"?>
<!-- Generator: Adobe Illustrator 19.0.1, SVG Export Plug-In . SVG Version: 6.00 Build 0)  -->
<svg version="1.1" id="Layer_1" xmlns="http://www.w3.org/2000/svg" xmlns:xlink="http://www.w3.org/1999/xlink" x="0px" y="0px"
	 viewBox="0 0 600 600" style="enable-background:new 0 0 600 600;" xml:space="preserve">
<style type="text/css">
	.st0{fill:#231F20;stroke:#FFFFFF;stroke-miterlimit:10;}
	.st1{fill:#7AAF42;stroke:#425A29;stroke-width:2;stroke-miterlimit:10;}
	.st2{fill:none;stroke:#425A29;stroke-width:2;stroke-miterlimit:10;}
	.st3{fill:#FFFFFF;stroke:#425A29;stroke-width:2;stroke-miterlimit:10;}
	.st4{fill:#FFFFFF;stroke:#425A29;stroke-width:5;stroke-miterlimit:10;}
	.st5{fill:none;stroke:#425A29;stroke-width:6;stroke-miterlimit:10;}
</style>
<rect class="st0" width="598.3" height="600"/>
<g id="Layer_3">
	<path class="st1" d="M222.6,435l10.5,10.7l0.1,0.1h71.7c0.1,0,0.3-0.1,0.3-0.3v-65c0-0.1,0.1-0.3,0.3-0.3h44c0.1,0,0.3-0.2,0.3-0.3
		v-28.7c0-0.1,0-0.1-0.1-0.1L338.7,340l-0.1-0.1h-32.9c-0.1,0-0.3-0.2-0.3-0.3v-18.1c0-0.1,0.1-0.3,0.3-0.3h71.5
		c0.1,0,0.3-0.2,0.3-0.3v-39c0-0.1,0-0.1-0.1-0.1L366.8,271c-0.1-0.1-0.4,0-0.4,0.1v38.3c0,0.1-0.1,0.3-0.3,0.3h-71.7
		c-0.1,0-0.3,0.2-0.3,0.3v29.7v94.4c0,0.2-0.1,0.3-0.3,0.3h-71.1C222.6,434.5,222.5,434.8,222.6,435z"/>
	<line class="st2" x1="294.1" y1="434.5" x2="305.4" y2="445.8"/>
</g>
<g id="Layer_1_1_">
	<path class="st3" d="M294.1,398.4v35.7c0,0.2-0.1,0.3-0.3,0.3h-71.4c-0.1,0-0.3-0.2-0.3-0.3V270.9c0-0.1,0.1-0.3,0.3-0.3h143.5
		c0.1,0,0.3,0.1,0.3,0.3v38.7c0,0.2-0.1,0.3-0.3,0.3h-71.5c-0.1,0-0.3,0.1-0.3,0.3v29.4c0,0.2,0.1,0.3,0.3,0.3h44.1
		c0.1,0,0.3,0.1,0.3,0.3v28.5c0,0.1-0.1,0.3-0.3,0.3h-44.1c-0.1,0-0.3,0.2-0.3,0.3v65.2"/>
	<ellipse class="st1" cx="299.7" cy="191.5" rx="66.6" ry="66.8"/>
	<ellipse class="st4" cx="314" cy="180.6" rx="24.4" ry="24.4"/>
	<line class="st5" x1="295.3" y1="196.9" x2="259.6" y2="225.9"/>
	<path class="st3" d="M366.2,309.9"/>
	<path class="st3" d="M366.2,309.9"/>
	<path class="st3" d="M222.2,434.5"/>
</g>
</svg>
