<?xml version="1.0" encoding="utf-8"?>
<!-- Generator: Adobe Illustrator 19.0.1, SVG Export Plug-In . SVG Version: 6.00 Build 0)  -->
<svg version="1.1" id="Layer_2" xmlns="http://www.w3.org/2000/svg" xmlns:xlink="http://www.w3.org/1999/xlink" x="0px" y="0px"
	 viewBox="-149 -100 300 400" style="enable-background:new -149 -100 300 400;" xml:space="preserve">
<style type="text/css">
	.st0{opacity:0;fill:#FFFFFF;enable-background:new    ;}
	.st1{font-family:'HelveticaNeue-Thin';}
	.st2{font-size:24px;}
	.st3{font-family:'OpenSans';}
	.st4{font-size:9px;}
	.st5{fill:none;stroke:#FFFFFF;stroke-width:0.5;stroke-miterlimit:10;stroke-dasharray:1000;stroke-dashoffset:1000;}
	.st6{font-size:6px;}
	.st7{fill:none;stroke:#FFFFFF;stroke-linecap:round;stroke-miterlimit:10;stroke-dasharray:870;stroke-dashoffset:870;}
	.st8{fill:none;stroke:#FFFFFF;stroke-width:0.5;stroke-miterlimit:10;stroke-dasharray:2000;stroke-dashoffset:2000;}
</style>
<text transform="matrix(1 0 0 1 -81.6793 167.0312)" class="st0 st1 st2">Samuel Grayson</text>
<text transform="matrix(1 0 0 1 -42.1479 192.9804)" class="st0 st3 st4">Front End Developer</text>
<line class="st5" x1="-71" y1="197.8" x2="73" y2="197.8"/>
<text transform="matrix(1 0 0 1 -56.0936 208.1484)" class="st0 st3 st4">User Experience Enthusiast</text>
<text id="real" transform="matrix(1 0 0 1 -34.2968 252.7773)" class="st0 st3 st6">keeping it real since 1992</text>
<polyline class="st7" points="37.7,19.1 0.6,-50.7 -42.3,30.8 -30.1,30.8 0.5,89 26,42.4 0.6,42.4 "/>
<polyline class="st7" points="-37.5,42.4 0.6,112.4 43.5,30.8 31.2,30.8 0.5,-27.6 -30.1,30.8 "/>
<rect x="-137.1" y="-89" class="st8" width="276.2" height="378.1"/>
<rect x="-144" y="-95.9" class="st8" width="290" height="391.9"/>
</svg>
