<?xml version="1.0" encoding="utf-8"?>
<!-- Generator: Adobe Illustrator 19.0.1, SVG Export Plug-In . SVG Version: 6.00 Build 0)  -->
<svg version="1.1" xmlns="http://www.w3.org/2000/svg" xmlns:xlink="http://www.w3.org/1999/xlink" x="0px" y="0px"
	 viewBox="0 0 600 600" style="enable-background:new 0 0 600 600;" xml:space="preserve">
<style type="text/css">
	.st0{display:none;}
	.st1{display:inline;opacity:0.5;}
	.st2{fill:#231F20;}
	.st3{fill:#FFFFFF;}
</style>
<g id="Layer_1" class="st0">
	<g id="_x35_EcaTm_1_" class="st1">
		
			<image style="overflow:visible;" width="339" height="149" id="_x35_EcaTm" xlink:href="B0504E2371A66B00.jpg"  transform="matrix(1 0 0 1 130.5 225.5)">
		</image>
	</g>
</g>
<g id="Layer_3">
	<rect class="st2" width="600" height="600"/>
</g>
<g id="Layer_2">
	<g>
		<path class="st3" d="M163.7,259.9c-10.7,1.1-16.8,2.2-23.1,3.7c-1.6,0.4-5.6,1.3-8.8,4.6c-1,1.1-2.4,4.9-2.2,7.3
			c0.3,4.2,5.6,6.5,7.9,6.6c9,0.3,9.9-1.3,16.5,0.4c9.7,2.5,18.1,13.5,17.1,21.7c-0.4,3.3-2.2,4.2-1.8,7.8c0.4,4.3,3.3,8.6,7.4,10.6
			c2.2,1.1,3,0.5,4.6,1.4c2.5,1.3,5.2,4.8,5.5,14.8l257.3,2.3c0.7-0.1,8.4-1.2,12-8.3c0.1-0.3-0.2-10.5-0.6-16.8
			c-0.3-4.9,1.4-5.6-8.1-8.3c-29.9-8.7-67.8,0.8-91.4-5.8c-5-1.4-2.3-3.9-7.8-9.2c-16.7-16-41.9-21.1-45.6-15.2
			c-3.1,4.8,10.6,13.7,7.4,20.3c-5.2,10.7-46,4.9-60.6,5c-1,0-5.9-0.7-10.9-1.8c-2.6-0.6-4.3-1.5-5.1-1.8c-9.5-4.5-19,3.1-28.6-1.4
			c-5.9-2.7-10-9.2-8.8-12.4c1-2.7,5.1-1.7,8.3-5.1c4-4.1,3.8-11.6,2.3-15.2C203.1,256.4,186.9,259.4,163.7,259.9z"/>
		<path class="st2" d="M204.4,270.9c0,3.3-2.8,6-4.5,6c-1.7,0-4.7-2.7-4.7-6s3-6,4.7-6C201.6,264.9,204.4,267.6,204.4,270.9z"/>
		<path class="st2" d="M236.1,309.9c0,3.9-2.4,7.1-3.7,7.1s-4-3.2-4-7.1s2.7-7.1,4-7.1S236.1,306,236.1,309.9z"/>
		<g>
			<path class="st2" d="M188.8,324c0,0,0.5-0.1,1.2-0.3c0.8-0.1,1.9-0.4,3.3-0.5c0.7-0.1,1.4-0.2,2.2-0.3c0.8-0.1,1.6-0.2,2.4-0.2
				c0.8-0.1,1.7-0.2,2.5-0.2c0.9,0,1.7-0.1,2.6-0.2c0.9,0,1.8-0.1,2.6-0.2c0.9-0.1,1.7-0.1,2.5-0.2c0.8-0.1,1.6-0.1,2.4-0.2
				c0.7-0.1,1.5-0.1,2.1-0.1c0.7-0.1,1.3-0.1,1.8-0.1c0.6,0,1-0.1,1.4-0.1c0.8-0.1,1.3-0.1,1.3-0.1l0.1,0.2c0,0-0.4,0.1-1.2,0.4
				c-0.4,0.1-0.8,0.3-1.4,0.4c-0.5,0.1-1.1,0.3-1.8,0.5c-0.7,0.1-1.4,0.3-2.1,0.5c-0.8,0.1-1.6,0.3-2.4,0.4
				c-1.7,0.2-3.5,0.4-5.3,0.6c-3.6,0.2-7.2,0.2-9.9,0.2c-2.7-0.1-4.5-0.2-4.5-0.2L188.8,324z"/>
		</g>
		<g>
			<path class="st2" d="M156.8,283.8c0,0,1.8,0.2,4.4,0.6c1.3,0.2,2.8,0.4,4.4,0.6c1.6,0.2,3.3,0.4,5,0.5c3.4,0.3,6.8,0.2,9.3-0.3
				c0.3,0,0.6-0.1,0.9-0.2c0.3-0.1,0.6-0.1,0.8-0.2c0.5-0.1,0.9-0.3,1.3-0.4c0.4-0.1,0.6-0.3,0.8-0.3c0.2-0.1,0.3-0.1,0.3-0.1
				s-0.1,0.1-0.2,0.2c-0.2,0.1-0.4,0.4-0.7,0.6c-0.3,0.2-0.7,0.5-1.2,0.8c-0.5,0.3-1,0.6-1.7,0.8c-0.6,0.3-1.3,0.5-2.1,0.6
				c-0.8,0.2-1.6,0.3-2.4,0.4c-0.8,0.1-1.7,0.2-2.6,0.2c-0.9,0-1.8,0-2.7-0.1c-0.9-0.1-1.8-0.2-2.7-0.3c-0.9-0.1-1.7-0.3-2.5-0.4
				c-1.6-0.3-3.1-0.8-4.4-1.2C158.4,284.7,156.8,283.8,156.8,283.8z"/>
		</g>
		<g>
			<path class="st2" d="M309.6,292.3c0,0,0.1,0.4,0.2,0.9c0.1,0.6,0.4,1.4,0.7,2.4c0.2,0.5,0.4,1,0.6,1.5c0.2,0.5,0.5,1,0.8,1.6
				c0.3,0.5,0.7,1,1.1,1.5c0.4,0.5,0.8,1,1.3,1.4c0.4,0.5,1,0.8,1.4,1.3c0.5,0.3,1,0.7,1.5,1c0.5,0.3,1.1,0.6,1.6,0.8
				c0.5,0.2,1,0.4,1.5,0.6c0.5,0.2,0.9,0.4,1.3,0.5c0.4,0.1,0.7,0.3,1,0.4c0.6,0.2,0.9,0.4,0.9,0.4s-0.3,0-1,0c-0.3,0-0.7,0-1.1,0
				c-0.2,0-0.5,0-0.7,0c-0.2,0-0.5-0.1-0.8-0.1c-0.5-0.1-1.1-0.2-1.7-0.4c-0.6-0.2-1.2-0.4-1.9-0.7c-0.6-0.3-1.2-0.7-1.9-1
				c-0.6-0.5-1.2-0.9-1.7-1.4c-0.5-0.6-1-1.1-1.4-1.7c-0.4-0.6-0.7-1.2-1.1-1.9c-0.3-0.6-0.5-1.3-0.7-1.9c-0.2-0.6-0.3-1.2-0.3-1.7
				c-0.1-0.5-0.1-1-0.1-1.5c0-0.4,0-0.8,0.1-1.1C309.5,292.7,309.6,292.3,309.6,292.3z"/>
		</g>
		<g>
			<path class="st2" d="M219.9,297.8c0,0,0.2-0.1,0.5-0.2c0.3-0.1,0.8-0.3,1.4-0.5c0.3-0.1,0.7-0.2,1-0.3c0.4-0.1,0.8-0.1,1.2-0.2
				c0.9-0.1,1.9-0.2,3-0.1c0.6,0,1.1,0.1,1.7,0.2c0.6,0.1,1.2,0.2,1.8,0.4c1.3,0.3,2.5,0.9,3.8,1.6c1.2,0.7,2.4,1.6,3.5,2.8
				c1,1.1,1.9,2.4,2.5,3.9c0.6,1.5,0.8,3.1,0.7,4.7c-0.1,1.6-0.6,3.1-1.3,4.3c-0.7,1.3-1.6,2.4-2.6,3.3c-0.9,0.9-1.9,1.6-2.9,2.2
				c-0.5,0.3-0.9,0.6-1.4,0.8c-0.5,0.2-0.9,0.5-1.3,0.6c-0.8,0.3-1.5,0.7-2.1,0.9c-1.2,0.4-1.9,0.6-1.9,0.6s0.6-0.4,1.7-1
				c0.6-0.3,1.2-0.7,1.9-1.2c0.4-0.2,0.7-0.5,1.1-0.8c0.4-0.3,0.8-0.6,1.2-0.9c0.4-0.3,0.9-0.7,1.2-1.1c0.4-0.4,0.9-0.8,1.2-1.2
				c0.2-0.2,0.4-0.4,0.6-0.7c0.2-0.2,0.3-0.5,0.5-0.7c0.4-0.5,0.6-1.1,1-1.6c0.6-1.1,0.9-2.4,0.9-3.7c0.1-1.3-0.2-2.6-0.6-3.8
				c-0.5-1.2-1.2-2.4-2.1-3.4c-0.9-1-1.9-1.9-3-2.6c-1.1-0.7-2.2-1.3-3.3-1.7c-1.1-0.4-2.2-0.7-3.3-0.9c-1-0.2-2-0.3-2.9-0.3
				c-0.4,0-0.8,0-1.2,0c-0.4,0-0.7,0.1-1,0.1c-0.6,0-1.1,0.2-1.5,0.2C220,297.8,219.9,297.8,219.9,297.8z"/>
		</g>
	</g>
</g>
</svg>
